<svg xmlns="http://www.w3.org/2000/svg" viewBox="0 0 867.43 544.63"><defs><style>.cls-1{isolation:isolate;}.cls-2{fill:#f7e2e2;}.cls-3{fill:#ff009e;}.cls-28,.cls-4{fill:#ed4343;}.cls-5{fill:#fff;}.cls-6{fill:#00b2ff;}.cls-7{fill:#e6edff;}.cls-22,.cls-8{fill:#ff7575;}.cls-9{fill:#f9f9fb;}.cls-10,.cls-12,.cls-15,.cls-23{fill:#263238;}.cls-10,.cls-22{opacity:0.25;}.cls-10,.cls-23,.cls-29{mix-blend-mode:hard-light;}.cls-11,.cls-30{fill:#ffbba4;}.cls-13{fill:#f87e64;}.cls-14{fill:#ccc;}.cls-15{mix-blend-mode:soft-light;}.cls-16{stroke:#191919;}.cls-16,.cls-31,.cls-33,.cls-34{stroke-miterlimit:10;}.cls-16,.cls-29{stroke-width:1.14px;}.cls-17{fill:#282828;}.cls-18{fill:#d23546;}.cls-19,.cls-20,.cls-26,.cls-29,.cls-31,.cls-33,.cls-34{fill:none;stroke-linecap:round;}.cls-19{stroke:#e4edfd;stroke-width:6.5px;}.cls-19,.cls-20,.cls-26,.cls-29{stroke-linejoin:round;}.cls-20{stroke:#ff7575;stroke-width:6.82px;}.cls-21{fill:#e4edfd;}.cls-22,.cls-24,.cls-28,.cls-30{mix-blend-mode:multiply;}.cls-23,.cls-29,.cls-30{opacity:0.5;}.cls-25{fill:#a32f2f;}.cls-26{stroke:#f87e64;stroke-width:2.27px;}.cls-27{fill:#f84455;}.cls-29{stroke:#263238;}.cls-31,.cls-33,.cls-34{stroke:#e6edff;}.cls-31{stroke-width:3.93px;}.cls-32{opacity:0.3;}.cls-33{stroke-width:2.66px;}.cls-34{stroke-width:2.89px;}.cls-35{fill:#e0e0e0;}</style></defs><g class="cls-1"><g id="Layer_2" data-name="Layer 2"><g id="our_service" data-name="our service"><polygon class="cls-2" points="740.66 445.64 126.49 445.64 0 526.6 867.43 526.6 740.66 445.64"/><rect class="cls-3" x="344.48" y="67.38" width="59.64" height="56" rx="15.13" transform="translate(748.61 190.76) rotate(180)"/><polygon class="cls-3" points="379.46 123.38 395.07 134.78 393.82 123.38 379.46 123.38"/><rect class="cls-4" x="738.49" y="338.11" width="55.32" height="51.94" rx="14.03"/><polygon class="cls-4" points="761.37 390.05 746.89 400.62 748.04 390.05 761.37 390.05"/><path class="cls-5" d="M384.24,100.5c-3.29-2.33-4.37-.38-6.44,1.87s-7.18-3.56-7.18-3.56S365.51,93,368,91.23s4.57-2.59,2.69-6.15c-1.78-3.35-3.4-5.11-4.47-5.09s-2.56,1.43-3.65,2.42-7.17,7.85,3.7,20.22,18.46,7.22,19.58,6.27,2.7-2.25,2.86-3.32S387.33,102.69,384.24,100.5Z"/><rect class="cls-6" x="729.71" y="188.77" width="68.51" height="64.33" rx="14.16"/><polygon class="cls-6" points="758.05 253.09 740.11 266.19 741.55 253.09 758.05 253.09"/><path class="cls-5" d="M782,227.87l.9-4.09a1.59,1.59,0,0,0-1.21-1.9l-2.51-.55A1.59,1.59,0,0,1,778,220a14.23,14.23,0,0,0-.72-3,1.58,1.58,0,0,1,.51-1.75l2-1.62a1.58,1.58,0,0,0,.23-2.23l-2.63-3.26a1.59,1.59,0,0,0-2.24-.24l-2,1.62a1.58,1.58,0,0,1-1.82.13,12.69,12.69,0,0,0-1.36-.74c-.48-.22-1-.42-1.44-.59a1.55,1.55,0,0,1-1-1.48l0-2.58a1.6,1.6,0,0,0-1.6-1.58l-4.2,0a1.59,1.59,0,0,0-1.57,1.61v2.57a1.57,1.57,0,0,1-1,1.5,14,14,0,0,0-2.8,1.37,1.58,1.58,0,0,1-1.81-.11l-2-1.59a1.6,1.6,0,0,0-2.24.27l-2.59,3.3a1.59,1.59,0,0,0,.27,2.23l2,1.59a1.59,1.59,0,0,1,.53,1.74,14.86,14.86,0,0,0-.68,3,1.59,1.59,0,0,1-1.21,1.36l-2.5.59a1.59,1.59,0,0,0-1.19,1.91l1,4.08a1.57,1.57,0,0,0,1.91,1.18l2.5-.59a1.58,1.58,0,0,1,1.69.67,14.13,14.13,0,0,0,2,2.42,1.59,1.59,0,0,1,.3,1.79l-1.1,2.33a1.58,1.58,0,0,0,.76,2.11l3.79,1.8a1.6,1.6,0,0,0,2.12-.76l1.1-2.33a1.56,1.56,0,0,1,1.57-.9,14.05,14.05,0,0,0,3.11,0,1.57,1.57,0,0,1,1.59.88l1.13,2.31a1.6,1.6,0,0,0,2.13.73l3.77-1.85a1.59,1.59,0,0,0,.72-2.13l-1.13-2.31a1.56,1.56,0,0,1,.28-1.79,14.94,14.94,0,0,0,1.92-2.45,1.54,1.54,0,0,1,1.67-.69l2.52.55A1.59,1.59,0,0,0,782,227.87Zm-21.54,1A7.92,7.92,0,1,1,771,225.1,7.92,7.92,0,0,1,760.47,228.88Z"/><rect class="cls-4" x="224.1" y="184.92" width="145.51" height="59.22" rx="21.44"/><path class="cls-7" d="M346.78,208.66l-1.25,2.54a1.25,1.25,0,0,1-.92.67l-2.8.4a1.22,1.22,0,0,0-.68,2.08l2,2a1.23,1.23,0,0,1,.35,1.08l-.48,2.78a1.22,1.22,0,0,0,1.77,1.29l2.5-1.32a1.27,1.27,0,0,1,1.14,0l2.5,1.32a1.22,1.22,0,0,0,1.77-1.29l-.48-2.78a1.26,1.26,0,0,1,.35-1.08l2-2a1.22,1.22,0,0,0-.68-2.08l-2.8-.4a1.21,1.21,0,0,1-.91-.67L349,208.66A1.22,1.22,0,0,0,346.78,208.66Z"/><path class="cls-7" d="M321.27,208.66,320,211.2a1.23,1.23,0,0,1-.92.67l-2.8.4a1.22,1.22,0,0,0-.67,2.08l2,2a1.2,1.2,0,0,1,.35,1.08l-.48,2.78a1.22,1.22,0,0,0,1.77,1.29l2.51-1.32a1.25,1.25,0,0,1,1.13,0l2.5,1.32a1.22,1.22,0,0,0,1.77-1.29l-.47-2.78a1.2,1.2,0,0,1,.35-1.08l2-2a1.22,1.22,0,0,0-.67-2.08l-2.8-.4a1.23,1.23,0,0,1-.92-.67l-1.25-2.54A1.23,1.23,0,0,0,321.27,208.66Z"/><path class="cls-7" d="M295.76,208.66l-1.25,2.54a1.23,1.23,0,0,1-.92.67l-2.79.4a1.22,1.22,0,0,0-.68,2.08l2,2a1.24,1.24,0,0,1,.36,1.08l-.48,2.78a1.22,1.22,0,0,0,1.77,1.29l2.5-1.32a1.27,1.27,0,0,1,1.14,0l2.5,1.32a1.22,1.22,0,0,0,1.77-1.29l-.48-2.78a1.2,1.2,0,0,1,.35-1.08l2-2a1.22,1.22,0,0,0-.68-2.08l-2.8-.4a1.23,1.23,0,0,1-.92-.67L298,208.66A1.23,1.23,0,0,0,295.76,208.66Z"/><path class="cls-7" d="M270.26,208.66,269,211.2a1.25,1.25,0,0,1-.92.67l-2.8.4a1.22,1.22,0,0,0-.68,2.08l2,2a1.2,1.2,0,0,1,.35,1.08l-.48,2.78a1.22,1.22,0,0,0,1.77,1.29l2.5-1.32a1.27,1.27,0,0,1,1.14,0l2.5,1.32a1.22,1.22,0,0,0,1.77-1.29l-.48-2.78a1.26,1.26,0,0,1,.35-1.08l2-2a1.22,1.22,0,0,0-.68-2.08l-2.8-.4a1.21,1.21,0,0,1-.91-.67l-1.26-2.54A1.22,1.22,0,0,0,270.26,208.66Z"/><path class="cls-7" d="M244.75,208.66l-1.25,2.54a1.23,1.23,0,0,1-.92.67l-2.8.4a1.22,1.22,0,0,0-.67,2.08l2,2a1.2,1.2,0,0,1,.35,1.08l-.48,2.78a1.22,1.22,0,0,0,1.77,1.29l2.51-1.32a1.25,1.25,0,0,1,1.13,0l2.51,1.32a1.21,1.21,0,0,0,1.76-1.29l-.47-2.78a1.2,1.2,0,0,1,.35-1.08l2-2a1.22,1.22,0,0,0-.67-2.08l-2.8-.4a1.23,1.23,0,0,1-.92-.67l-1.25-2.54A1.23,1.23,0,0,0,244.75,208.66Z"/><polygon class="cls-4" points="247.96 241.85 242.86 255.63 262.9 240.57 247.96 241.85"/><polygon class="cls-8" points="670.92 108.77 668.44 123.21 687.95 107.18 670.92 108.77"/><rect class="cls-8" x="654.18" y="45.95" width="103.56" height="65.26" rx="16.31"/><path class="cls-8" d="M687.43,459.3a148.76,148.76,0,0,1-25.42,11h0a353.91,353.91,0,0,1-36.19,9.95c-1,.19-2,.36-3,.53-5.23.91-10.32,1.77-15.18,2.56l-2,.33c-3.4.56-6.68,1.08-9.83,1.58l-1.17.19c-5.08.79-9.78,1.51-14,2.13l-1.77.25c-2.61.39-5,.73-7.19,1l-.87.12-.84.11-.82.12c-2.41.33-4.46.59-6.09.79l-.85.11-.18,0-.89.1-.76.09a3.08,3.08,0,0,0-.46,0h-.1l-.34,0-.7.05h-.12l-18.84-38.13h0l-1.33-2.67-.36-.74-18.27,3.45s.11-2.41.39-6.78c2-31.61,12.78-165.86,53-231.12l43.26-8.58-11.49-24.08s31.15,20,47.88,28.6a163.22,163.22,0,0,0,15.29,7c2,.76,3.93,1.45,5.82,2,14.79,15,25.75,47.08,31.91,83.18,2.06,12,3.57,24.39,4.53,36.77C714.72,393.84,708,447.46,687.43,459.3Z"/><path class="cls-9" d="M505.42,191.56l8.42-1.5s6.83,43.21,11.7,39.94c.76-.51,36.27-27.92,36.27-27.92L529.2,445.64H452.62s-23.78-51.1,6.87-118.79S505.42,191.56,505.42,191.56Z"/><path class="cls-10" d="M607.34,382.76s-3.71,42.49,9.86,36.88,10,1.43,10,1.43l-15.81,15.59-35.91,4.64Z"/><path class="cls-4" d="M515.38,191.56c0,.06-.07.17-.07.17-2,4.09-20.33,14.93-68.11,24.15,0,0-15.36,10.27-20.2,24.36s-43.8,161.39-75.9,179.4c0,0,12.72,5.87,11.36,28.38,0,0,56.76,2.15,68.79-24.86,0,0-.11-.28-.31-.82s-.39-1-.67-1.84a.56.56,0,0,0,0-.12c-.94-2.69-2.43-7.22-4-13,0-.1-.06-.19-.08-.29v0c-3.83-14.32-7.92-36.05-4.87-56.1,11.9-31.25,32.46-87.23,38.18-115.34,9.66-5.38,24.21-8,34.73-16.4,6.41-5.09,19.15-14.11,20.55-25.33"/><path class="cls-11" d="M513.83,186.41v14.34a41.92,41.92,0,0,0,9.66,26.78l2,2.47,53.84-36.17.89-55.89Z"/><path class="cls-11" d="M563.21,163.73c1.61-1.62,3.22-3.33,4.85-5.14l17.7-18.81-6.94-68.73H568.54l-.46-12.6S485.4-3.41,459.87,73.36c0,0-6.67,96.39,36.26,116.55,0,0,29.86,11.45,66.93-26h0Z"/><path class="cls-12" d="M602.47,142.75c15.78-28.2-1-58.21-1-58.21,3.19-77.43-54.82-79.37-85-78-32.36,1.47-37.71,13-37.71,13-18.18,4.25-11.86,22.29-11.86,22.29C456,50.28,468,51.21,468,51.21c4.7,44.47,90.58,19.84,90.58,19.84-14.22,33.49,13.83,44.79,19.76,57.9s-.91,30.12-12.22,46.37S556,227.25,554.26,251s-25.64,82.39-40.43,113.14,6.86,92,6.86,92l32.14-12.87,39.92-8.63c18.33-43.26,24.88-123.14,24.88-123.14v0C631.29,216.92,602.47,142.75,602.47,142.75Z"/><path class="cls-13" d="M493.82,144.07a9.15,9.15,0,0,1-8.19-5,1.06,1.06,0,0,1,.18-1.24,23.12,23.12,0,0,0,3.36-4.29,24.36,24.36,0,0,0,2.89-18.42,1,1,0,0,1,.18-.89,1.1,1.1,0,0,1,.87-.41,1,1,0,0,1,1,.77,25.13,25.13,0,0,1,.76,5.83,26.54,26.54,0,0,1-7,18.3,7.14,7.14,0,0,0,6,3.24,7,7,0,0,0,3.4-.88,1,1,0,0,1,.51-.13,1.07,1.07,0,0,1,1,.82,1,1,0,0,1-.5,1.14,9.2,9.2,0,0,1-4.44,1.14Z"/><path class="cls-14" d="M312.23,511.14s.78,2.47,10.72,1,159.9-20.94,159.9-20.94,1.83-.87.87-5.41L305,455l-14.12,1.93Z"/><path class="cls-15" d="M513.83,191.2S533.12,189,553.07,173c0,0-10.61,19.94-39.24,25.74Z"/><path class="cls-13" d="M497.5,141.6a7.65,7.65,0,0,1-10.35-2.94,26,26,0,0,0,7.13-18.21,24.34,24.34,0,0,0-.74-5.7.48.48,0,0,0-.93.26,25.05,25.05,0,0,1-2.95,18.84,24.08,24.08,0,0,1-3.45,4.4.5.5,0,0,0-.07.59A8.65,8.65,0,0,0,498,142.43C498.53,142.13,498,141.3,497.5,141.6Z"/><path class="cls-12" d="M307.37,493.64l74.23-8.29s1.84-.39,0-2l-81.41-13.6Z"/><path class="cls-16" d="M478.57,96.41c-1.09-3-3.56-5-6.19-4.79s-5.07,2.65-5.46,6c-.08.71.82,1,.9.24.33-2.89,2.32-5,4.64-5.13s4.33,1.5,5.25,4C478,97.45,478.81,97.09,478.57,96.41Z"/><path class="cls-12" d="M483.72,485.81s-161.11,18.76-166,19.05-6.31-1-6.31-1,3.42,5.94,0,8.94l5.73.24,165.75-21.79S484.69,489.94,483.72,485.81Z"/><path class="cls-17" d="M505.77,192.36c0-.26,0-.53,0-.8A2.22,2.22,0,0,1,505.77,192.36Z"/><path class="cls-16" d="M526.34,98.42c-1.15-3.92-3.68-7.65-7.8-8.78-3.69-1-7.83.8-8.88,4.64-.19.7.94.85,1.13.15.94-3.45,5-4.64,8.1-3.49,3.43,1.27,5.41,4.54,6.4,7.91C525.49,99.55,526.54,99.11,526.34,98.42Z"/><path class="cls-18" d="M513.37,157.34a16.11,16.11,0,0,1-6.63,8.64,15.56,15.56,0,0,1-10.53,2.26c-6.68-1.06-10.6-6.73-12.54-12.77a33.74,33.74,0,0,1-.88-3.31.45.45,0,0,1,.31-.51.43.43,0,0,1,.59-.09,21,21,0,0,0,6.66,2.88,20.33,20.33,0,0,0,12.76-1.16,20.86,20.86,0,0,0,9.3-8.18v0c-.19-.53.59-.72.85-.32l.07.09a.6.6,0,0,1,.1.32A19.87,19.87,0,0,1,513.37,157.34Z"/><path class="cls-19" d="M591.71,109.53A92,92,0,0,0,595.87,82c0-43.13-28.64-78.58-64.57-78.58"/><path class="cls-20" d="M587.58,109.53A92,92,0,0,0,591.74,82c0-43.13-28.64-78.58-64.57-78.58"/><path class="cls-12" d="M531.68,161.62c-.83,0-1.67,0-2.52,0l.08-3.4c49.9,1.29,57-36.12,57.31-37.71l3.36.58C589.84,121.46,582.32,161.62,531.68,161.62Z"/><path class="cls-12" d="M515.53,161.42c.24,3.72,6.38,6.37,13.72,5.92s13.11-3.85,12.88-7.57-6.38-6.38-13.72-5.92S515.3,157.7,515.53,161.42Z"/><rect class="cls-4" x="564.04" y="85.37" width="43.44" height="59.07" rx="19.43"/><rect class="cls-21" x="573.31" y="93.31" width="31.77" height="43.19" rx="11.74"/><rect class="cls-8" x="574.36" y="93.31" width="31.77" height="43.19" rx="11.74"/><path class="cls-22" d="M600.26,94.9c1.13,9.37,1.42,32.28-20.88,39.48a11.69,11.69,0,0,0,6.72,2.12h8.28a11.74,11.74,0,0,0,11.74-11.74V105.05A11.72,11.72,0,0,0,600.26,94.9Z"/><path d="M519.07,105a5.78,5.78,0,0,1-4.43.27,2.15,2.15,0,0,0-1.51-.76H513a.43.43,0,0,0-.34.06c-1.72.49-3.05,3.73-3.05,7.65,0,4.26,1.56,7.71,3.49,7.71s3.49-3.45,3.49-7.71a15.6,15.6,0,0,0-.14-2.09,6.06,6.06,0,0,0,2.23-1.74,5.87,5.87,0,0,0,1.2-2.75A.58.58,0,0,0,519.07,105Z"/><path d="M475.41,104.61a.32.32,0,0,0-.29-.06H475a1.77,1.77,0,0,0-1.29.76A4.26,4.26,0,0,1,470,105c-.41-.24-.78.15-.72.65a6.55,6.55,0,0,0,1,2.75,5.35,5.35,0,0,0,1.89,1.74,20,20,0,0,0-.11,2.09c0,4.26,1.33,7.71,3,7.71s3-3.45,3-7.71C478,108.34,476.87,105.1,475.41,104.61Z"/><path class="cls-23" d="M510.43,391.78c-1.65.58-11.22,22.78-9.29,41C502.75,448,469.76,440,458.69,437c.75-14.5,5.14-83.91,21.64-123.26,18.49-44.1,20.51-68.4,20.51-68.4L458.56,351.41l-6.42,85,3,1.53v5.49l12.56,7.81h51.89Z"/><g class="cls-24"><path class="cls-4" d="M433.72,433.75S418.52,385.2,418,376.8c.14,3.69,1,30-3.24,43.14l-.12.37-.05.14a8.51,8.51,0,0,1-1.85,2.73c-27.93-.35-36.63,14.9-38.89,20.57-7.41,3-12.84,4.91-12.84,4.91l54.3-1.59L415,428.55Z"/><path class="cls-4" d="M418,376.8c0-.28,0-.44,0-.44S418,376.64,418,376.8Z"/></g><path class="cls-25" d="M525.17,495.5s-22.35-2.95-17-45.9Z"/><path class="cls-26" d="M495.75,172s10.42,3.08,15.28-4"/><path class="cls-5" d="M513.83,146.62c-13,19.18-29.49,9.26-30.16,8.85a33.74,33.74,0,0,1-.88-3.31.45.45,0,0,1,.31-.51.43.43,0,0,1,.59-.09,21,21,0,0,0,6.66,2.88,20.33,20.33,0,0,0,12.76-1.16,20.86,20.86,0,0,0,9.3-8.18v0c-.19-.53.68-.78,1-.37Z"/><path class="cls-27" d="M492.15,166.89s6.31-11.88,19.56-6C511.71,160.91,505.08,172.77,492.15,166.89Z"/><path class="cls-12" d="M459.49,90.89S458,65.36,480.33,55.06c0,0-8.56-9.13-16.68.73S459.49,90.89,459.49,90.89Z"/><path class="cls-12" d="M459.53,85.64S458,60.11,480.36,49.81c0,0-8.55-9.14-16.68.72S459.53,85.64,459.53,85.64Z"/><path class="cls-12" d="M459.32,81.38s-1.5-25.53,20.84-35.83c0,0-8.56-9.14-16.68.73S459.32,81.38,459.32,81.38Z"/><path class="cls-8" d="M505.47,225.86l8.4-28.2c-.07-.25,0-5.25,0-5.25-1.24,4.75-10.83,19.3-21.13,27.53a29.31,29.31,0,0,1-7.14,4.18c-19.91,8.25-35.57,7.65-38.4,28.1,0,.35-.09.72-.14,1.08,0,0-10.38,46.35-21.39,77.47-.18.5-.35,1-.52,1.5,0,0,0,0,0,0-.66,1.91-1.27,3.75-1.83,5.56,0,0,0,0,0,.07-1.12,3.53-2.05,6.91-2.82,10.2a.06.06,0,0,0,0,0c-4.27,18.38-3.09,34.12,4.26,59.63l0,0c0,.1.05.19.07.3,1.17,4.05,2.5,8.35,4,12.95a.69.69,0,0,1,.05.13c.19.57.37,1.15.57,1.73l.1.11,23.17,22.65,2.31,3.07S452.42,373.62,479,306.2C505.77,238.41,505.47,225.86,505.47,225.86Z"/><path class="cls-11" d="M362.06,472.21s14.7-36.36,26.69-38.29,33.84-14.51,43.32-9.48,47,37.31,111,23.3l26.49,43-77-1.16s-35.2,6-63.63-16.05-37.72-11.8-37.72-11.8l-13.92,11Z"/><path class="cls-4" d="M701.35,440.83c-3.62,8.76-8.25,15.21-13.93,18.47a148.76,148.76,0,0,1-25.42,11h0a354.62,354.62,0,0,1-36.19,9.95c-8.41,1.9-16.94,3.59-25.3,5.11-39.66,7.17-75.32,10.11-75.32,10.11l-2-5.41h0l-15-40.48s5.3-1.81,12.19-4c8.37-2.67,19.08-5.86,25.39-7,35-6.11,79.85-16.45,87.09-31.32,9.35-19.19,4.79-64.08,4.79-64.08s-33-95.43,12.11-131.85a5.13,5.13,0,0,1,3.27-1c1,0,2.15.14,3.13.16a22.58,22.58,0,0,1,11.45,3.58,36.09,36.09,0,0,1,6.53,5.29c14.78,15,25.75,47.08,31.91,83.18,2,12,3.56,24.39,4.53,36.77C713.55,378.83,710.88,417.82,701.35,440.83Z"/><path class="cls-26" d="M370.9,472.21s10.74-24.56,27.08-26.78,27.08,2,27.08,2"/><path class="cls-11" d="M362.06,435.34a16.13,16.13,0,0,0-21.37-15.25l-33.51,11.52a10.82,10.82,0,0,0-7,12.69l2.45,10.51a8.68,8.68,0,0,0,7.65,6.67l5.08.48c5.68,6.78,11,3.58,13.22,1.72,7.33,8.49,14.07.52,14.07.52h0a8.34,8.34,0,0,0,1.55-.45c8.12,1.22,9.36-4.81,9.53-7.25,7.94-.05,7.45-8.39,7.45-8.39l-.23.18a9.4,9.4,0,0,0,1.16-4.51Zm-33,27.91h0Z"/><path class="cls-26" d="M387.05,434.41s9.92,1.33,24.91-2.34c6.3-1.55,13.67-2.71,15.73.77"/><path class="cls-13" d="M315.4,461.28A82.82,82.82,0,0,1,313,442.47a.57.57,0,0,0-1.14,0,84.27,84.27,0,0,0,2.41,19.11C314.48,462.29,315.58,462,315.4,461.28Z"/><path class="cls-13" d="M328.54,463.59A58.19,58.19,0,0,1,325.29,441c0-.73-1.09-.73-1.13,0a59.12,59.12,0,0,0,3.28,22.92C327.68,464.58,328.78,464.28,328.54,463.59Z"/><path class="cls-13" d="M339.74,434.16c-.1-.72-1.19-.41-1.09.31q2.1,14.7,4.21,29.4c.1.72,1.2.42,1.1-.3Q341.85,448.87,339.74,434.16Z"/><path class="cls-13" d="M353.73,443.56q-.37-3-1-5.9a8.53,8.53,0,0,0-1.93-4.5c-.51-.52-1.31.28-.8.81,1.17,1.2,1.44,2.95,1.75,4.54.38,1.94.69,3.91.93,5.88a82.3,82.3,0,0,1,.58,11.64.57.57,0,0,0,1.14,0A83.8,83.8,0,0,0,353.73,443.56Z"/><path class="cls-12" d="M48.22,266.59l196.83,18.56s9.29,3.09,14,16.63c4.33,12.36,51.55,173.07,59.72,200.9A11.68,11.68,0,0,1,317.1,513a6.87,6.87,0,0,1-3.44,2.61C309.21,516.87,121.08,472,121.08,472s-7.74-1.93-13.35-19.73-64.21-170.2-64.21-170.2S39.23,267.53,48.22,266.59Z"/><path class="cls-14" d="M47.2,271.22l190.31,18.57s9.28,3.09,14,16.63S312,505.83,312,505.83s1.55,7.54-2.9,8.8-195.54-38-195.54-38-7.73-1.93-13.34-19.73S43.52,282.05,43.52,282.05,38.2,272.16,47.2,271.22Z"/><rect class="cls-4" y="526.6" width="867.43" height="18.03"/><path class="cls-28" d="M619.09,418.66s34.46-5.36,40.46-2.26c0,0-19.38-13.25-26-10.67A38.25,38.25,0,0,1,619.09,418.66Z"/><path class="cls-28" d="M701.35,440.83c-3.62,8.76-8.25,15.21-13.93,18.47a148.76,148.76,0,0,1-25.42,11h0a354.62,354.62,0,0,1-36.19,9.95c-8.41,1.9-16.94,3.59-25.3,5.11-39.66,7.17-75.32,10.11-75.32,10.11l-2-5.41h0S676.43,474,701.35,440.83Z"/><path class="cls-23" d="M524.16,232.85c-6.38-1.35-7.35,21.28-7.35,21.28l-11-15.09L518,259Z"/><polygon class="cls-23" points="529.54 240.01 537.27 255.09 554.1 248.71 536.89 260.7 529.54 240.01"/><path class="cls-29" d="M494.12,445.84s-4.4-61.87,5.75-88.27,9.29-56.86,18.57-78.91,4.93-28.72,7.54-33.36"/><path class="cls-30" d="M473.76,490l42.31-.06,7.08.12L508.71,451.2l3.65,19.31A13.6,13.6,0,0,1,502.94,486C496.87,487.89,487.66,489.53,473.76,490Z"/><path class="cls-4" d="M425.47,410.48s7.5.41,15.33,12,14.32,13.43,14.32,13.43l-.19,2L429.76,423.8Z"/><circle class="cls-7" cx="679.01" cy="85.53" r="4.23"/><circle class="cls-7" cx="696.41" cy="85.53" r="4.23"/><circle class="cls-7" cx="712.78" cy="85.53" r="4.23"/><path class="cls-6" d="M220.79,393.75,120.54,379.53c-5.69-.81-11.83-6.49-13.73-12.72L69.66,245.48c-2-6.6,1-11.43,6.88-10.75l102.91,11.93c6.07.7,12.53,6.75,14.41,13.49L228.3,383.8C230.07,390.14,226.7,394.59,220.79,393.75Z"/><line class="cls-31" x1="90.61" y1="258.52" x2="132.71" y2="263.58"/><path class="cls-7" d="M102.51,282c.47,1.54-.27,2.66-1.65,2.49a4.58,4.58,0,0,1-3.33-3.11c-.47-1.55.27-2.66,1.65-2.49A4.54,4.54,0,0,1,102.51,282Z"/><line class="cls-31" x1="111.14" y1="283.1" x2="159.55" y2="289.11"/><line class="cls-31" x1="170.55" y1="290.48" x2="180.01" y2="291.65"/><path class="cls-7" d="M108.27,301.13c.46,1.53-.28,2.63-1.65,2.45a4.51,4.51,0,0,1-3.32-3.08c-.47-1.54.27-2.64,1.64-2.46A4.54,4.54,0,0,1,108.27,301.13Z"/><line class="cls-31" x1="116.86" y1="302.23" x2="178.98" y2="310.15"/><path class="cls-7" d="M114,320.06c.46,1.52-.28,2.6-1.65,2.42a4.54,4.54,0,0,1-3.31-3.07c-.45-1.51.28-2.6,1.65-2.42A4.54,4.54,0,0,1,114,320.06Z"/><line class="cls-31" x1="122.53" y1="321.18" x2="140.08" y2="323.48"/><line class="cls-31" x1="150.66" y1="324.87" x2="190.94" y2="330.14"/><line class="cls-31" x1="126.24" y1="333.58" x2="160.26" y2="338.11"/><g class="cls-32"><path class="cls-3" d="M147.69,218.42l-64.87-8.55c-3.86-.51-8.19-4.67-9.69-9.32l-5.78-18c-1.55-4.82.36-8.4,4.3-8l66.16,7.21c4.33.48,8.94,5,10.27,10l5,18.79C154.34,215.52,151.93,219,147.69,218.42Z"/><line class="cls-33" x1="78.09" y1="187.23" x2="103.99" y2="190.26"/><line class="cls-33" x1="110.43" y1="191.01" x2="117.82" y2="191.87"/><line class="cls-33" x1="81.58" y1="198.3" x2="126.97" y2="203.94"/><line class="cls-33" x1="134.08" y1="204.82" x2="141.62" y2="205.76"/></g><path class="cls-3" d="M149.06,159.05l-62.24-7c-4.45-.49-8.9-4.71-10-9.41L66.11,97.53C65,93,67.52,89.16,71.76,89.06l59.1-1.49a13.34,13.34,0,0,1,12.63,9.48l13.66,53.14C158.58,155.74,154.9,159.7,149.06,159.05Z"/><polyline class="cls-34" points="77.49 110.7 81.32 113.96 86.89 106.15"/><line class="cls-34" x1="94.2" y1="107.57" x2="135.25" y2="108.2"/><line class="cls-34" x1="95.65" y1="113.51" x2="117.2" y2="114.11"/><polyline class="cls-34" points="82.76 132.72 86.65 136.17 92.33 128.64"/><line class="cls-34" x1="99.77" y1="130.41" x2="141.58" y2="133.06"/><line class="cls-34" x1="101.24" y1="136.42" x2="123.18" y2="138.08"/><path class="cls-35" d="M263.3,126.32a13.09,13.09,0,0,0,7.79-12.1c0-7.23-5.44-13.11-12.21-13.14s-12.29,5.8-12.32,13a13.08,13.08,0,0,0,7.82,12.22c-18.88,2.84-18,23.35-18,23.35l44.63.21S282,129.14,263.3,126.32Z"/><path class="cls-5" d="M769.79,363.72a7,7,0,0,0,4.14-6.43,6.53,6.53,0,1,0-13-.06,6.92,6.92,0,0,0,4.15,6.49c-10,1.51-9.57,12.41-9.57,12.41l23.71.11S779.73,365.22,769.79,363.72Z"/><path class="cls-35" d="M410.87,175a7.06,7.06,0,0,0,6.68-1.43c1.16,1.66,2.63,3.65,4.29,5.76.92,1.16,1.81,2.25,2.65,3.26a7.22,7.22,0,0,0-3.72,8.52c-1.57.49-3.33,1.08-5.23,1.78-1.67.61-3.22,1.22-4.6,1.8a7.24,7.24,0,1,0,0,4.26,7,7,0,0,0,.3-2.48c1.52-.47,3.21-1,5-1.71s3.71-1.42,5.24-2.07A7.27,7.27,0,1,0,426.36,182c-.88-1.21-1.88-2.52-2.95-3.88-1.72-2.19-3.35-4.14-4.72-5.68a8.63,8.63,0,0,0,1.46-2.75c1.31-4.15-.72-8.5-4.54-9.7s-8,1.18-9.28,5.34S407.05,173.78,410.87,175Z"/><path class="cls-35" d="M347.32,315.24a20.65,20.65,0,1,0-38.45,10.43h0l.06.08c.79,1.33,1.78,2.28,2.79,3.69l12,15.88a3.74,3.74,0,0,0,6,0l11.79-15.62a43.59,43.59,0,0,0,3-4l.05-.05h0A20.53,20.53,0,0,0,347.32,315.24Zm-20.65,9a9.09,9.09,0,1,1,9.09-9.09A9.09,9.09,0,0,1,326.67,324.23Z"/><path class="cls-5" d="M198.32,391.41l-1.63-.32c4.05,13.34,10.09,33.48,10.53,34.93,0,.06,0,.13,0,.19-4.56-.65-28.49-5.46-44.59-8.77-.21-.12-1.26-.83-2.15-3.64s-6.23-19.28-9.87-30.49l-1.62-.25c3.64,11.19,9.22,28.4,10.1,31.18,1.31,4.16,3.12,4.61,3.12,4.61S206.92,428,208,427.74s.68-2.06.68-2.06S202.53,405.28,198.32,391.41Z"/><path class="cls-5" d="M192.17,390.22l-1.24-.23c3,9.9,8.46,28,8.82,29.24a.71.71,0,0,1,0,.14c-3.47-.49-21.71-4.16-34-6.68-.16-.09-1-.63-1.64-2.78s-5.66-17.49-8.35-25.79l-1.24-.19c2.65,8.15,7.79,24,8.53,26.32,1,3.17,2.38,3.52,2.38,3.52s34.06,7,34.86,6.77.51-1.57.51-1.57S195.33,400.6,192.17,390.22Z"/></g></g></g></svg>